<?xml version="1.0" encoding="UTF-8"?>
<svg id="Layer_1" data-name="Layer 1" xmlns="http://www.w3.org/2000/svg" viewBox="0 0 960 960">
  <defs>
    <style>
      .cls-1 {
        stroke-width: 0px;
      }
    </style>
  </defs>
  <path class="cls-1" d="M651.72,465.16c-.01,1.93,3.27,3.94,4.51,4.94,2.34,1.98,4.76,3.87,7.2,5.67,5.35,3.96,10.96,7.5,16.85,10.61,4.76,2.59,9.94,5.01,15.31,6.07,3.97.81,8.08.77,12.07,1.5,2.88.55,6.45,1.42,5.98,5.05-.51,4.28-7.53,3.73-10.52,3.73-11.77,0-23.82-1.43-34.71-6.11-11.28-4.79-21.27-12.58-30.67-20.36-2.3-1.87-4.56-3.74-6.84-5.63-2.69-2.27-4.37-2.99-7.77-3.88-5.71-1.45-11.25-3.55-16.45-6.36-19.09-10.35-31.58-29.33-32.26-51.11-.69-21.62,9.45-42.81,28.05-54.42,20.05-12.48,45.75-12.62,65.62.29,17.2,11.16,27.93,29.37,28.45,49.92.55,22.2-9.72,42.87-29.47,53.82-4.87,2.67-10.07,4.69-15.39,6.25M602.53,369.99c-9.95,15.15-10.23,36.87-6.59,54.02,3.85,18.21,14.73,32.46,34.02,35.37,18.69,2.78,35.51-6.33,42.42-23.88,6.63-16.75,7.36-37.69,1.5-54.74-4.51-13.09-15.1-23.23-28.78-26.11-15.5-3.3-33.62,1.65-42.59,15.33"/>
  <path class="cls-1" d="M349.44,348.8c22.37.22,44.72,0,67.08.41,5.24.07,10.49.58,15.73.37,3.91-.18,7-1.98,10.75-2.35,7.08-.73,5.87,10.63,5.98,15.03.15,4.96,2.9,12.87.21,17.33-1.24,2.06-4.29,1.95-5.56,0-1.54-2.27-1.58-5.53-1.82-8.2-.59-6.81-2.32-13.02-10.31-13.7-4.51-.37-9.03.4-13.56.4-4.99.01-9.97,0-14.91,0,.22,27.38-.26,54.74-.07,82.1.04,5.38-.69,11.51.59,16.78.8,3.33,5.01,3.22,7.76,3.3,2.87.11,6.59-.32,9.12,1.29,3.42,2.16.92,6.15-2.43,6.33-4.92.25-10.12-.95-15.09-1.14-6.3-.25-12.57.03-18.88.29-4.08.19-8.99,1.17-13.05.29-1.43-.3-2.7-1.17-3.04-2.67-.69-3,1.27-4.27,4.04-4.54,3.75-.33,9.68,1.76,12.72-1.4,2.61-2.74,2.35-7.94,2.32-11.42-.08-11.09-.37-22.2-.37-33.3,0-16.86.66-33.82-.36-50.65-.11-1.75-.25-3.48-.4-5.24-2.06.04-4.08.01-6.16-.07-3.75-.14-7.51-.21-11.25-.32-4.96-.21-15.24-2.77-17.96,3.03-2.54,5.34-1.5,11.92-3.49,17.48-2.04,5.7-7.15,2.48-7.49-2.16-.51-6.18,1.13-12.59,1.71-18.72.44-4.91,1.61-12.64,8.17-8.55"/>
  <path class="cls-1" d="M489.21,358.1c-.14,3.19,3.49,6.57,5.07,9.06,2.65,4.21,5.25,8.38,7.84,12.57,5.24,8.46,10.49,16.96,16.09,25.15,7.07-10.53,13.63-21.4,20.3-32.21,2.23-3.63,13.41-15.87,3.65-16.76-2.1-.15-5.68.37-6.97-1.78-3.56-6,6.56-5.45,9.61-5.18,5.79.56,11.73.29,17.55-.22,2.82-.25,9.12-1.83,10.38,1.94,2.44,7.07-6.76,4.62-9.94,5.82-4.44,1.65-6.89,7.65-9.11,11.44-6.29,10.93-13.45,21.43-20.21,32.07-2.94,4.68-6.77,9.37-8.93,14.48-2.39,5.64-1.5,13.23-1.34,19.27.14,6.5.48,13.02.59,19.53.04,3.03.22,4.76,3.54,5.53,2.68.65,5.54.32,8.29.29,2.91,0,6.96.4,7.22,4.14.31,4.89-4.55,5.38-8.31,5.05-9.9-.91-19.02-1.94-28.99-1.03-4.33.37-19.38,2.9-17.77-5.49.69-3.63,5.34-3.83,8.26-3.85,2.12-.03,4.24.07,6.38.1,1.5.01,1.94.41,2.59-1.1.66-1.58,1.04-3.29,1.27-5,.77-5.57-.04-11.29-.03-16.9.03-5.75.7-11.84-.66-17.51-1.2-4.98-4.96-9.41-7.8-13.64-3.58-5.35-6.99-10.86-10.49-16.27-3.27-5.05-6.56-10.01-9.81-15.07-2.74-4.14-4.79-8.82-7.89-12.77-2.72-3.45-5.49-3.37-9.41-4.47-3.57-.99-3.6-5.86,0-6.9,4.91-1.46,10.97.52,15.91,1,6.78.63,13.08-1.39,19.75-1.65,2.27-.08,5.39.18,6.7,2.42,1.03,1.75.26,4.12-1.66,4.83-3.73,1.43-8.79-.4-11.66,3.14"/>
  <path class="cls-1" d="M211.81,348.44c2.7-.11,6.99.04,7.03,3.74.06,4.13-4.08,4.02-7.18,3.91-2.57-.11-7.04-.69-8.61,2.05-1.87,3.23-1.47,8.2-1.46,11.84.07,24.76.22,49.51.22,74.26,0,3.59-1.47,12.08,1.47,14.88,1.73,1.65,5.67,1.09,7.82,1.17,2.06.04,5.62-.12,6.99,1.79,2.5,3.48-2.61,6.15-5.35,5.97-11.41-.83-22.69-2.45-34.19-1.39-2.43.23-9.02,1.46-8.98-2.64.04-3.22,5.03-3.4,7.25-3.59,2.28-.22,5.23-.11,7.21-1.36,1.91-1.21,2.02-4.57,2.17-6.52.52-7.03-.29-14.18-.29-21.22,0-19.24-.3-38.51.44-57.74.21-5.02,1.77-14.22-4.19-16.24-2.21-.76-17.34-1.06-12.03-6.77,3.37-3.62,13.09-1.13,17.29-.76,8.24.72,16.23-1.02,24.42-1.36"/>
  <path class="cls-1" d="M807.15,357.36c-2.88-2.23-15.03.3-14.8-4.84.25-4.94,5.18-3.81,8.61-3.44,5.21.58,10.55,1.18,15.78.66,3.71-.37,19.58-4.29,18.66,3.26-.82,6.99-12.95.29-15.58,5.29-1.9,3.62-1.21,8.91-1.17,12.83.07,6.17.01,12.35.01,18.51,0,12.37.69,24.8.49,37.16-.11,10.34-.69,20.89-8.66,28.44-6.49,6.15-15.54,9.86-24.17,11.66-18.22,3.81-43.64,2.79-58.14-10.43-7.69-6.98-8.49-18.55-8.64-28.26-.22-12.68.13-25.37.18-38.1.02-6.33,0-12.64-.11-18.99-.07-3.29-.11-6.63-.22-9.92-.08-2.57.32-4.4-2.57-4.96-3.36-.66-6.85.23-10.22-.41-2.43-.51-3.62-3.88-1.41-5.42,4.37-3.15,12.07-1.39,17.04-1.17,6.15.19,12.31.41,18.43.03,3.4-.26,12.83-2.97,12.67,3.3-.18,6.81-14.13.22-15.97,6.35-1.24,4.05-.45,8.88-.3,13.03.26,6.3-.26,12.65-.37,18.95-.33,13.02-.58,26.12-.43,39.19.11,8.45,1.49,15.79,8.36,21.25,10.81,8.6,27.07,10.08,40.18,7.17,6.43-1.4,12.86-4.1,17.59-8.8,6.02-5.97,6.76-13.58,6.57-21.69-.3-12.21-.33-24.4-.33-36.64,0-6.08-.13-12.21.07-18.29.14-5.22.54-10.74-1.55-15.72"/>
  <path class="cls-1" d="M870.57,359.59c-.92,13.34-.12,26.76-.4,40.09,5.96.77,11.98.8,17.99.77,3.14,0,6.27-.04,9.42-.04,3.31,0,4.7-.63,5.94-3.78,1.25-3.18.7-9.55,3.73-11.64,5.47-3.8,5.58,4.9,5.38,7.72-.37,5.49-.08,11.11-.07,16.61.02,2.64,1.61,17.19-1.64,17.7-7.15,1.06-5.91-10.57-7.77-14.7-1.46-3.25-10.76-2.41-13.74-2.38-6.29.03-12.58.51-18.85.14-.77,12.79-.36,25.57-.46,38.31,0,4.06.36,6.88,4.59,7.69,4.26.84,8.69.76,13,.76,7.78.04,18.49,2.86,25.69-.66,7.59-3.73,3.14-16.45,8.47-21.73,3.09-3.04,5.66.77,5.97,3.59.4,3.81-.45,7.63-.75,11.44-.44,4.95.04,11.15-1.81,15.87-1.21,3.07-6.97,2.19-9.5,2.09-11.2-.44-22.29-1.29-33.52-1.21-13.39.07-26.97,1.65-40.33,1.18-2.71-.1-7.63-2.62-4.17-5.7,2.42-2.2,6.95-1.79,10-2.09,2.04-.22,3.02-.54,4.43-2.04,1.68-1.75,1.03-5.34,1.07-7.85.14-6.52.18-13.05.22-19.6.09-13.23.07-26.5.02-39.78-.02-6.28-.04-12.58-.04-18.87,0-3.48,1.81-10.69-1.43-13.24-3.58-2.78-13.09.96-14.99-3.7-2.01-5.02,4.27-5.16,7.45-5.01,6.79.26,13.63.03,20.39.03,13.39,0,26.76,0,40.15.37,2.54.07,5.14.11,7.63-.45,1.79-.43,3.25-1.72,5.03-.37,3.22,2.39,2.7,8.86,2.91,12.36.16,3.61,4.32,20.3-2.2,19.94-6.79-.37-5.84-15.94-8.83-19.79-3.37-4.36-12.3-2.38-16.97-2.09-7.37.47-14.67-.92-22.04.07"/>
  <path class="cls-1" d="M31.64,354.01c-.11-2.73-.19-4.78,3.01-4.93,3.14-.18,6.26.01,9.38.21,6.63.5,13.08.73,19.71.4,11.83-.66,23.71-1.39,35.56-.59,22.98,1.57,44.99,13.61,53.99,35.76,8.55,20.99,1.39,47.31-12.82,64.11-6.72,7.96-15.53,14.58-25.81,16.85-10.96,2.42-22.57,2.27-33.73,1.72-7.93-.3-15.8-.77-23.74-.73-4.02,0-8.09.22-12.1.33-3.49.11-9.71,1.32-12.69-1.1-2.12-1.79-.66-4.87,1.61-5.6,3.11-.96,6.52-.45,9.68-1.21,5.68-1.32,4.29-11.18,4.24-15.46-.26-19.71-1.1-39.48-.45-59.19.25-7.63,1.6-15.68.36-23.3-1.66-10.06-11.02-2.12-16.19-7.27ZM64.04,358.47c0,25.5.84,51.09-.07,76.58-.14,3.92-.36,7.82-.37,11.77,0,2.71-.54,7.34,1.2,9.68,2.32,3.23,10.16,2.23,13.57,2.31,6.2.14,12.42.22,18.61-.08,9.87-.5,18.7-2.2,25.88-9.41,7.03-7.03,10.99-16.74,13.09-26.28,4.44-20.52.84-44.49-17.24-57.57-7.23-5.2-15.8-7.12-24.55-7.71-5.01-.36-10.05-.36-15.07-.36-2.61,0-14.05-1.43-15.03,1.07"/>
  <path class="cls-1" d="M270.37,414.16c-.69,12.53-.55,25.09-.36,37.58.07,3.44-.14,7.8,4.06,8.31,3.42.43,6.89-.25,10.27.15,2.81.39,5.21,2.27,4.04,5.35-1.5,4.03-9.83,1.86-12.89,1.58-5.51-.48-11-1.03-16.53-.99-5.82.01-11.59,1.54-17.35,1.39-2.96-.08-6.83-2.79-3.84-5.84,2.12-2.2,6.42-1.76,9.17-1.9,1.42-.08,2.89-.18,4.22-.63,2.17-.74,1.76-3.44,1.91-5.4.62-6.85.18-13.78.18-20.63v-40.19c0-9.5.7-19.17.26-28.66-.11-2.12-.04-5.27-1.47-7.01-1.68-2.12-6.02-1.28-8.33-1.21-2.7.04-6.11-.41-5.65-3.96.4-3.22,5.03-2.82,7.32-2.67,9.27.69,18.41.62,27.74.5,9.64-.14,19.79-.22,29,3.01,18.11,6.39,26.69,27.49,16.41,44.17-10.3,16.72-30.35,18.51-48.17,17.04M295.63,403.4c8.83-6.29,12.44-19.5,8.25-29.41-2.17-5.08-5.98-10.6-11.25-12.9-4.96-2.2-10.95-2.6-16.32-2.75-1.24-.03-2.45-.03-3.69,0-1.88.07-2.26-.47-2.34,1.65-.18,3.66-.29,7.29-.33,10.96-.08,7.52.03,15.06.1,22.6,0,3.74.03,7.52-.03,11.24-.01,2.42.91,1.69,3,1.83,1.94.19,3.86.33,5.8.4,5.73.18,11.98-.18,16.8-3.62Z"/>
  <path class="cls-1" d="M433.71,553.23c4.22,10.42,8.1,21.04,12.14,31.56,1.91,4.98,3.89,9.92,5.93,14.87,1.03,2.41,2.06,4.84,3.16,7.24,1.13,2.52,3.12,1.73,5.49,2.41,1.69.48,2.43,3.39.88,4.4-1.47.92-3.81.4-5.39.18-4.55-.56-8.84-.07-13.41.14-2.08.07-6.48.33-6.27-2.85.19-2.96,5.91-2.19,7.85-2.48-.62-4.13-2.35-7.85-4.14-11.56-.94-2.02-1.87-4.06-2.56-6.19h-14.23c-3.45,0-3.66.58-5.09,3.66-1.98,4.28-3.34,8.81-5.5,12.98,2.08,1.06,8.4.29,6.97,4.43-.92,2.73-6.67,1.58-8.69,1.51-2.32-.11-8.72,1.58-10.34-.59-.77-1.05-.33-3.32.85-3.87.7-.33,1.55-.37,2.28-.52,1.68-.29,1.76-1.4,2.49-2.88,5.02-10.03,8.95-20.55,13.05-30.97,2.05-5.23,4.14-10.46,6.42-15.61,1.8-4.03,2.89-8.42,8.07-5.86M421.83,585.04h12.98c-1.98-5.62-4-11.19-6.3-16.64-2.16,5.57-4.61,11.02-6.7,16.64"/>
  <path class="cls-1" d="M564.71,557.3c-.89,2.55-5.74,1.07-7.7,1.86-.16,5.07-.3,10.16-.37,15.25-.15,10.93-.07,21.86.35,32.79.11,3.95,5.99,0,7.5,3.28,1.64,3.5-2.73,3.91-4.96,3.76-3.66-.26-7.08-.88-10.81-.61-2.21.22-4.44.61-6.65.55-2.96-.07-3.14-1.62-3.03-4.35,1.03-1.62,3.34-1.53,4.95-1.43.8.08,1.6.18,2.4.32.29-1.5.45-2.99.59-4.51.52-5.93.19-11.92.15-17.85-.05-5.49-.03-11-.03-16.46,0-3.59,1.9-10.16-2.73-10.75-1.76-.25-5.02,0-5.4-2.4-.76-4.69,7.7-2.59,10.05-2.46,3.85.29,15.91-3.95,15.68,3.03"/>
  <path class="cls-1" d="M613.41,553.62c1.53,1.51,1.16,4.17,1.1,6.13-.11,2.57.59,4.91.78,7.43.4,4.94-5.09,3.63-5.73-.19-.52-2.96-.42-6.46-3.65-7.9-4.03-1.86-10.3-1.47-13.85,1.28-3.79,2.95-5.64,8.42-2.3,12.47,3.11,3.8,8.6,5.02,13.01,6.54,9.49,3.22,17.81,10.67,15.49,21.76-2.03,9.66-11.09,13.61-20.12,13.94-4.92.18-9.86-.52-14.59-1.82-1.66-.48-4.78-.66-4.83-2.52-.04-1.8-.45-3.59-.7-5.42-.41-2.67-1.53-6.96.15-9.39,2.48-3.62,4.88,2.26,5.28,4.06,1.28,6.21,5.54,9.1,11.92,9.64,6.45.5,14.16-2.29,14.07-9.84-.08-10.2-13.97-11.98-21.08-15.42-8.61-4.21-11.73-14.27-6.75-22.72,7.01-11.95,20.6-7.2,31.78-8.01"/>
  <path class="cls-1" d="M505.08,585.05c1.84,5.16,6.09,9.25,8.7,13.98,2.46,4.54,4.14,9.04,9.82,9.7,1.98.22,3.78.91,3.29,3.34-.62,3.14-3.33,2.79-6.16,2.77-5.18-.04-10.09-1.36-13.11-5.82-2.97-4.43-5.31-9.35-8.07-13.9-1.42-2.41-2.87-4.83-4.48-7.16h-4.88c-2.85,0-3.27-.45-3.48,2.48-.37,5.44-.36,10.91.11,16.31.34,3.95,6.9.63,8.42,3.81,2.17,4.5-5.61,3.65-7.6,3.44-5.5-.59-10.9.44-16.34.03-4-.4-3.58-5,.22-5.33,1.13-.1,2.21-.03,3.31,0,2.2.01,1.43-1.29,1.5-3.14.15-3.74.25-7.49.26-11.2.07-6.57-.03-13.17-.07-19.72-.03-3.32-.04-6.59-.03-9.88.03-3.44.87-5.51-3.05-5.57-1.4-.07-3.81.26-4.69-1.14-.22-1.5-.18-3.44,1.43-4.18,3.41-1.51,8.95.63,12.61.45,9.9-.45,23.67-2.79,30.17,7.01,5.13,7.75,1.21,20.88-7.89,23.73M500.63,580.99c5.73-4.03,5.03-16.35-.73-19.93-1.9-1.21-4.14-1.47-6.3-1.47-1.28-.03-2.53.01-3.78.01-2.93,0-2.97-.33-3.16,2.74-.44,6.72.11,13.42-.12,20.1,4.46-.29,10.2,1.28,14.1-1.45Z"/>
  <path class="cls-1" d="M354.31,553.99c12.82.47,42.02-4.34,42.37,15.76.18,10.45-7.88,16.92-17.57,17.91-2.32.26-4.69.26-7.01.11-2.24-.17-1.61.48-1.73,2.44-.08,1.36-.15,2.77-.21,4.14-.07,2.7-1.25,13.87,1.72,14.51,1.99.44,6.13-.81,7.33,1.45,2.96,5.57-7.67,3.65-9.87,3.44-2.65-.19-5.34-.41-8-.22-2.25.14-4.94,1.36-7.22.58-1.83-.62-2.48-3.03-.94-4.36,1.2-1.03,3.11-.94,4.58-1.06,2.7-.18,2.49-.56,2.61-3.26.08-3.03.17-6.06.22-9.11.11-6.3.12-12.55.08-18.83-.08-6.13-.22-12.21-.41-18.28-1.77-.88-3.95-.11-5.79-.62-2.06-.56-2.02-3.8-.15-4.58ZM386.46,570.65c-.26-4.87-3.62-8.56-8.11-10.03-2.59-.88-5.42-1.03-8.14-.7v17.71c0,1.95-.94,4.78,1.29,5.02,2.63.33,5.38.14,7.85-.85,4.61-1.83,7.4-6.24,7.11-11.15Z"/>
</svg>