<?xml version="1.0" encoding="UTF-8"?>
<svg id="Layer_1" data-name="Layer 1" xmlns="http://www.w3.org/2000/svg" viewBox="0 0 960 960">
  <defs>
    <style>
      .cls-1 {
        stroke-width: 0px;
      }
    </style>
  </defs>
  <polygon class="cls-1" points="420.53 319.86 479.96 392.85 479.96 425.95 447.65 425.95 382.64 343.79 382.64 425.95 320.42 425.95 320.42 319.86 420.53 319.86"/>
  <polygon class="cls-1" points="663.43 319.86 663.43 425.95 601.21 425.95 601.21 342.99 535.4 425.95 503.89 425.95 503.89 392.05 563.32 319.86 663.43 319.86"/>
  <polygon class="cls-1" points="344.75 498.54 397 544.81 397 498.54 420.93 498.54 420.93 567.94 395 567.94 345.95 524.46 343.55 523.27 343.55 567.94 320.42 567.94 320.42 498.54 344.75 498.54"/>
  <path class="cls-1" d="M683.37,498.54c18.7.57,37.57-.75,56.27-.03,4.84.19,11.19.4,15.91.84,31.04,2.9,34.66,31.44,3.6,37.08l30.31,31.51h-27.52l-28.71-28.71h-25.93v28.71h-23.93v-69.4h0ZM707.3,528.06h36.3c1.6,0,8.15-2.09,9.59-3.18,3.86-2.9,3.74-8.24,0-11.2-1.09-.86-6.97-3.18-7.99-3.18h-37.89v17.55h0Z"/>
  <polygon class="cls-1" points="660.24 498.54 660.24 510.51 590.04 510.51 590.04 525.66 655.45 525.66 655.45 537.63 590.04 537.63 590.04 555.58 591.24 556.78 662.63 556.78 662.63 567.94 563.72 567.94 563.72 499.74 564.91 498.54 660.24 498.54"/>
  <path class="cls-1" d="M302.87,567.94h-25.93l-10.5-15.03-47.76-.19-9.95,15.22h-26.32l46.61-68.66,25.97-.33,47.87,68.99h0ZM226.29,540.82h31.91l-9.6-16.15-7.14-9.37-15.17,25.53h0Z"/>
  <path class="cls-1" d="M794.25,567.94l47.07-68.99,25.98.33,47.4,68.67h-25.93l-11.14-15.22-47.76.19-10.5,15.03h-25.13,0ZM870.03,540.82l-16.35-25.51c-4.33,7.15-11.27,15.3-14.81,22.67-.47.97-1.01,1.61-.74,2.85h31.91Z"/>
  <path class="cls-1" d="M544.3,510.78c.83.82,5.29,6.23,3.49,7.34l-23.95,2.36c-8.75-15.51-45.48-13.94-53.96.29-5.31,8.91-4.05,25.01,5.03,31.09,10.5,7.03,31.97,7.65,42.49.48,3.7-2.52,5.3-6.79,8.43-9.13l23.53,4c-3.52,6.03-7.71,10.97-13.83,14.47-26.36,15.09-98.75,10.94-94.55-31.53,3.76-38.05,81.55-40.85,103.33-19.37h0Z"/>
  <polygon class="cls-1" points="80.31 499.34 101.06 545.2 101.06 567.94 89.09 567.94 66.75 516.09 66.75 567.94 44.42 567.94 44.42 499.34 80.31 499.34"/>
  <path class="cls-1" d="M172.85,499.34v68.6h-21.54v-53.44l-23.13,53.44h-11.97v-22.74c0-.29,2.43-3.72,2.96-5.02,5.59-13.78,12.47-26.97,17.78-40.85h35.9Z"/>
  <path class="cls-1" d="M529.81,598.25c3.2.38,11.76,3.36,14.15,5.57,4.2,3.9,1.86,8.65-2.83,10.52l-18.08,4.63,6.58,1.8,22.92,14.17h-14.76c-1.61,0-21.44-15.95-27.92-15.95h-23.53v15.95h-11.97v-36.7h55.44,0ZM486.34,614.21h37.09c3.76,0,13.74-3.71,8.69-8.69-.88-.87-6.92-3.27-7.89-3.27h-37.89v11.97h0Z"/>
  <path class="cls-1" d="M648.27,608.62c-.11-.07-.13-1.55-1.16-2.4-6.62-5.45-23.41-5-31.74-3.78-3.21.47-10.86,2.38-8.4,6.81,1.99,3.58,33.11,4.84,39.12,5.94,5.94,1.08,22.62,5.15,14.17,13.8-8.58,8.78-42.8,7.66-54.31,4.8-5.52-1.37-13.63-4.36-14.32-10.8l10.63.12c4.59,7,16.14,8.36,24.02,8.68,4.03.16,25.51-1.06,25.04-6.67-1.78-4.76-10.06-5.38-14.73-6.03-10.88-1.52-23.39-.81-33.81-4.48-4.96-1.74-8.7-3.62-7.01-9.41,1.57-5.38,19.97-7.54,24.92-7.78,8.7-.41,32.65.2,37.79,7.72.72,1.05,1.14,2.37,1.73,3.49-2.05-.44-11.05.6-11.97,0h0Z"/>
  <path class="cls-1" d="M331.59,620.59v14.36h-11.17v-36.7h50.65c.98,0,9.7,2.63,11.07,3.29,5.28,2.56,8.1,7.39,3.7,12.27-8.08,8.96-42.47,6.18-54.25,6.77h0ZM364.69,602.24c-10.13-1.27-22.7.94-33.11,0v12.36c.7,1.14,1.59,1.1,2.75,1.24,7.73.91,28.68.49,35.98-1.6,3.5-1,7.3-3.82,4.97-7.85-.61-1.05-9.06-3.96-10.6-4.15h0Z"/>
  <path class="cls-1" d="M381.85,634.95l32.66-35.54c2.52-1.68,12.38-1.81,14.84-.4l35.46,35.94h-13.16l-9.98-10.72-36.93-.26c-2.6.27-9.27,10.98-10.52,10.98h-12.36,0ZM436.88,620.59l-14.76-18.33c-2.66,6.16-10.24,11.06-13.4,16-.56.87-.78,1.18-.56,2.34h28.72Z"/>
  <rect class="cls-1" x="566.11" y="598.25" width="11.97" height="36.7"/>
</svg>